<?xml version="1.0" encoding="UTF-8"?>
<svg width="108px" height="100px" viewBox="0 0 108 100" version="1.1" xmlns="http://www.w3.org/2000/svg" xmlns:xlink="http://www.w3.org/1999/xlink">
    <title>8F01ABD0-28D5-4C55-B1AB-9F5DB66FD78C@1x</title>
    <g id="Page-1" stroke="none" stroke-width="1" fill="none" fill-rule="evenodd">
        <g id="jade&amp;co" transform="translate(-1134.000000, -2799.000000)" fill="#5FCE79" fill-rule="nonzero">
            <g id="Block-Why-US" transform="translate(0.000000, 2551.000000)">
                <g id="icon3" transform="translate(1134.000000, 248.000000)">
                    <path d="M87.7408908,6.52812426 C90.1130427,7.29844419 92.1519483,8.80958602 93.5967149,10.7804757 C95.0234455,12.7393554 95.8675717,15.1525048 95.8675717,17.7565486 C95.8675717,19.6376799 95.4217053,21.4294744 94.6310579,23.0244749 C93.9295418,24.4281597 92.9667136,25.6702373 91.7952132,26.6858123 L91.7952132,35.6742828 C91.7952132,36.5463709 91.0939069,37.2511631 90.2260822,37.2511631 L78.0092165,37.2511631 C77.1411821,37.2511631 76.439666,36.5461602 76.439666,35.6742828 L76.439666,26.6858123 C75.2685851,25.6702373 74.3055472,24.4281597 73.610113,23.0244749 C72.8133837,21.4294744 72.3675173,19.6376799 72.3675173,17.7565486 C72.3675173,15.1525048 73.2116435,12.7391447 74.6383741,10.7804757 C76.100967,8.77966659 78.181607,7.25651485 80.5952837,6.49209453 C81.4276655,6.23525099 82.3074443,6.69542022 82.5630939,7.53168931 C82.6107006,7.68107575 82.6402712,7.8424721 82.6402712,7.99754745 L82.6402712,15.6543927 L84.1206903,16.2753262 L85.6011094,15.6543927 L85.6011094,7.99754745 C85.6011094,7.12545933 86.3026255,6.42066349 87.1704502,6.42066349 C87.3724113,6.42024576 87.56871,6.45606479 87.7408908,6.52812426 Z M24.5763416,52.9413748 L29.8734695,52.9413748 C31.1695441,52.9413748 32.3464972,53.4729714 33.1967053,54.3330496 C34.0527856,55.1870175 34.5819112,56.3753666 34.5819112,57.6774938 C34.5819112,58.9796211 34.0527856,60.1622813 33.1967053,61.0223595 C32.3464972,61.8763274 31.1695441,62.407924 29.8734695,62.407924 L24.5763416,62.407924 C23.280267,62.407924 22.1033139,61.8763274 21.2531058,61.0223595 C20.7241899,60.4905522 20.3198482,59.8337997 20.087897,59.1049877 C18.9287702,58.8424552 17.8822634,58.2505984 17.0679175,57.4324495 C15.9503154,56.3037286 15.2546715,54.7508681 15.2546715,53.0427216 L15.2546715,51.3345751 L12.4307809,51.3345751 C11.1347064,51.3345751 9.95775327,50.8029785 9.10754515,49.9490106 C8.25125512,49.0889323 7.72233927,47.9062721 7.72233927,46.6041449 L7.72233927,40.2970451 C7.72233927,38.9949179 8.25125512,37.8122577 9.10754515,36.9521795 C9.95775327,36.0982116 11.1347064,35.566615 12.4307809,35.566615 L15.3377209,35.566615 C15.7064101,32.0847942 17.2757508,28.9550534 19.6181224,26.6015322 C22.3111472,23.8961417 26.020479,22.2174932 30.1108735,22.2174932 C34.2008485,22.2174932 37.91039,23.8961417 40.6034148,26.6015322 C42.9457864,28.9550534 44.5151271,32.0845835 44.8838163,35.566615 L47.7907563,35.566615 C49.0868308,35.566615 50.2639937,36.0982116 51.120074,36.9521795 C51.9700724,37.8122577 52.4991979,38.9949179 52.4991979,40.2970451 L52.4991979,46.6041449 C52.4991979,47.9062721 51.9700724,49.0889323 51.120074,49.9490106 C50.2639937,50.8029785 49.0868308,51.3345751 47.7907563,51.3345751 L43.397525,51.3345751 C42.5294906,51.3345751 41.8221023,50.6295722 41.8221023,49.7576948 L41.8221023,37.143706 C41.8221023,33.9124077 40.5023293,30.9678724 38.3799549,28.8353757 C36.2575804,26.7033004 33.3328141,25.3773641 30.1106637,25.3773641 C26.8943856,25.3773641 23.9633277,26.7033004 21.8411629,28.8353757 C19.7187884,30.9678724 18.3990154,33.9124077 18.3990154,37.143706 L18.3990154,49.7576948 L18.3990154,53.0429323 C18.3990154,53.8792014 18.7440061,54.643411 19.2907483,55.1988167 C19.5642242,55.4674595 19.8853067,55.688484 20.2359599,55.8441914 C20.4737833,55.2767758 20.8185643,54.7630887 21.2526863,54.3330496 C22.1033139,53.4729714 23.280267,52.9413748 24.5763416,52.9413748 Z M29.8732598,56.101035 L24.5761319,56.101035 C24.1480917,56.101035 23.7615763,56.2801301 23.476356,56.5668931 C23.1911357,56.8532347 23.0126633,57.2474547 23.0126633,57.6777045 C23.0126633,58.1077437 23.1911357,58.5019637 23.476356,58.7830378 C23.7615763,59.0693794 24.1480917,59.2488959 24.5761319,59.2488959 L29.8732598,59.2488959 C30.3012999,59.2488959 30.6876057,59.0693794 30.9730357,58.7830378 C31.258256,58.5019637 31.4367284,58.1077437 31.4367284,57.6777045 C31.4367284,57.2476654 31.258256,56.8534454 30.9730357,56.5668931 C30.6876057,56.2801301 30.3012999,56.101035 29.8732598,56.101035 Z M15.2546715,38.7264859 L12.4307809,38.7264859 C12.0027408,38.7264859 11.6164351,38.89926 11.3310051,39.1862337 C11.0457848,39.4729967 10.8673124,39.8672167 10.8673124,40.2972558 L10.8673124,46.6043556 C10.8673124,47.0343947 11.0455751,47.4286148 11.3310051,47.7092674 C11.6164351,47.9960304 12.0027408,48.1751256 12.4307809,48.1751256 L15.2546715,48.1751256 L15.2546715,38.7264859 Z M47.7911757,38.7264859 L44.9674949,38.7264859 L44.9674949,48.1751256 L47.7911757,48.1751256 C48.2192159,48.1751256 48.6116035,47.9960304 48.8909516,47.7092674 C49.1763816,47.4286148 49.3546443,47.0343947 49.3546443,46.6043556 L49.3546443,40.2972558 C49.3546443,39.8672167 49.1763816,39.4729967 48.8909516,39.1862337 C48.6116035,38.89926 48.2192159,38.7264859 47.7911757,38.7264859 Z M62.4273806,62.0676432 C61.5593462,62.0676432 60.8580398,61.3569514 60.8580398,60.4848633 C60.8580398,59.6127752 61.5595559,58.9020834 62.4273806,58.9020834 L98.6677638,58.9020834 C99.5360079,58.9020834 100.237105,59.6127752 100.237105,60.4848633 C100.237105,61.3569514 99.5357982,62.0676432 98.6677638,62.0676432 L62.4273806,62.0676432 Z M62.4273806,55.9278394 C61.5593462,55.9278394 60.8580398,55.2228365 60.8580398,54.3509591 C60.8580398,53.4790817 61.5595559,52.7681792 62.4273806,52.7681792 L75.8629338,52.7681792 C76.7368404,52.7681792 77.4383565,53.478871 77.4383565,54.3509591 C77.4383565,55.2230472 76.7368404,55.9278394 75.8629338,55.9278394 L62.4273806,55.9278394 Z M64.0030129,24.3919192 C64.0030129,25.2640073 63.3014969,25.9751205 62.4273806,25.9751205 C61.5593462,25.9751205 60.8580398,25.2640073 60.8580398,24.3919192 L60.8580398,17.577032 L6.66408811,17.577032 C5.69517802,17.577032 4.82127145,17.9712521 4.17910637,18.6166268 C3.54302318,19.2556805 3.14455366,20.1397785 3.14455366,21.1071031 L3.14455366,39.8729056 C3.14455366,40.7449938 2.44303759,41.4497859 1.57521292,41.4497859 C0.707388256,41.4497859 0,40.7449938 0,39.8731163 L0,21.1073138 C0,19.2679011 0.749122695,17.5953629 1.95585617,16.382994 C3.16258965,15.1702036 4.82714363,14.4180039 6.66408811,14.4180039 L60.8578301,14.4180039 L60.8578301,5.67394566 C60.8578301,4.10886458 61.4939133,2.69338064 62.5165119,1.66621717 C63.5391105,0.639053703 64.9482246,0 66.499739,0 L101.73556,0 C103.287074,0 104.70206,0.639053703 105.724449,1.66621717 C106.746838,2.69316994 107.377049,4.10865388 107.377049,5.67373496 L107.377049,37.9976739 L107.377049,68.7628527 L107.377049,74.9028672 C107.377049,76.7427013 106.627926,78.4152395 105.421193,79.6276085 C104.21446,80.8399774 102.549906,81.5925985 100.718833,81.5925985 L64.6390961,81.5925985 L68.4140705,90.7066463 L74.8822794,90.7066463 C75.7559762,90.7066463 76.457702,91.4116492 76.457702,92.2835266 L76.457702,98.4235411 C76.457702,99.2956292 75.7559762,100 74.8822794,100 L32.5782387,100 C31.7043321,100 31.002816,99.2954185 31.002816,98.4235411 L31.002816,92.2835266 C31.002816,91.4114385 31.7043321,90.7066463 32.5782387,90.7066463 L39.0462378,90.7066463 L42.8212122,81.5925985 L6.66408811,81.5925985 C4.82714363,81.5925985 3.16258965,80.8399774 1.95585617,79.6276085 C0.749122695,78.4152395 0,76.7427013 0,74.9026565 L0,68.762642 L0,47.0284951 C0,46.156407 0.707388256,45.4516148 1.57542264,45.4516148 C2.44345703,45.4516148 3.14476338,46.1566177 3.14476338,47.0284951 L3.14476338,67.1861831 L104.232076,67.1861831 L104.232076,43.0803948 C103.477081,43.456916 102.632955,43.6718302 101.73556,43.6718302 L92.0986792,43.6718302 L85.4463355,54.1838738 C84.9826428,54.9246957 84.0078605,55.1393993 83.2763544,54.6735411 C83.0683113,54.5422749 82.8961306,54.3627583 82.7770092,54.1657536 L76.1364098,43.6718302 L66.4999488,43.6718302 C64.9484343,43.6718302 63.5393202,43.0327765 62.5167216,42.0056131 C61.494123,40.9784496 60.8580398,39.5623335 60.8580398,37.9978846 L60.8580398,31.5534083 C60.8580398,30.6756313 61.5595559,29.9706284 62.4273806,29.9706284 C63.3014969,29.9706284 64.0030129,30.6756313 64.0030129,31.5534083 L64.0030129,37.9978846 C64.0030129,38.6908775 64.2825708,39.3177106 64.7403913,39.7715588 C65.1921299,40.2254071 65.8164687,40.5123807 66.5001585,40.5123807 L76.9987817,40.5123807 C77.5218254,40.5123807 78.0272525,40.7692243 78.3244269,41.247303 L84.1209,50.3971699 L89.8756388,41.3069312 C90.1430328,40.8290631 90.6545418,40.5123807 91.2369365,40.5123807 L101.73556,40.5123807 C102.419249,40.5123807 103.043169,40.2256178 103.495117,39.7715588 C103.952938,39.3177106 104.232286,38.6908775 104.232286,37.9978846 L104.232286,5.67373496 C104.232286,4.9811634 103.952938,4.35348751 103.495117,3.89963928 C103.043379,3.44579105 102.419249,3.15881738 101.73556,3.15881738 L66.4999488,3.15881738 C65.816259,3.15881738 65.1921299,3.44558035 64.7401815,3.89963928 C64.282361,4.35348751 64.0028032,4.9811634 64.0028032,5.67373496 L64.0028032,24.3919192 L64.0030129,24.3919192 Z M104.232286,70.3456326 L3.14476338,70.3456326 L3.14476338,74.9028672 C3.14476338,75.8704025 3.54302318,76.7547113 4.17931609,77.393765 C4.82148117,78.0385076 5.69538774,78.4329383 6.66429784,78.4329383 L100.719043,78.4329383 C101.682081,78.4329383 102.56186,78.0330294 103.197943,77.393765 C103.839898,76.7547113 104.232286,75.8704025 104.232286,74.9028672 L104.232286,70.3456326 L104.232286,70.3456326 Z M34.6053999,75.97196 C33.7373655,75.97196 33.0299773,75.2612682 33.0299773,74.3891801 C33.0299773,73.517092 33.7373655,72.8064002 34.6053999,72.8064002 L41.5073114,72.8064002 C42.3753458,72.8064002 43.0766522,73.517092 43.0766522,74.3891801 C43.0766522,75.2612682 42.3751361,75.97196 41.5073114,75.97196 L34.6053999,75.97196 Z M71.0653608,75.97196 C70.1973265,75.97196 69.4899382,75.2612682 69.4899382,74.3891801 C69.4899382,73.517092 70.1973265,72.8064002 71.0653608,72.8064002 L72.7775215,72.8064002 C73.6455558,72.8064002 74.3468622,73.517092 74.3468622,74.3891801 C74.3468622,75.2612682 73.6453461,75.97196 72.7775215,75.97196 L71.0653608,75.97196 Z M63.2480181,75.97196 C62.3797739,75.97196 61.6723857,75.2612682 61.6723857,74.3891801 C61.6723857,73.517092 62.3797739,72.8064002 63.2480181,72.8064002 L64.9601787,72.8064002 C65.8282131,72.8064002 66.5295194,73.517092 66.5295194,74.3891801 C66.5295194,75.2612682 65.8280033,75.97196 64.9601787,75.97196 L63.2480181,75.97196 Z M55.4304655,75.97196 C54.5624312,75.97196 53.8550429,75.2612682 53.8550429,74.3891801 C53.8550429,73.517092 54.5624312,72.8064002 55.4304655,72.8064002 L57.1426262,72.8064002 C58.0106605,72.8064002 58.7119669,73.517092 58.7119669,74.3891801 C58.7119669,75.2612682 58.0104508,75.97196 57.1426262,75.97196 L55.4304655,75.97196 Z M47.612913,75.97196 C46.7448787,75.97196 46.0374904,75.2612682 46.0374904,74.3891801 C46.0374904,73.517092 46.7448787,72.8064002 47.612913,72.8064002 L49.3248639,72.8064002 C50.1928983,72.8064002 50.8942047,73.517092 50.8942047,74.3891801 C50.8942047,75.2612682 50.1926886,75.97196 49.3248639,75.97196 L47.612913,75.97196 Z M57.2911085,93.8660958 C56.4230741,93.8660958 55.7217677,93.1610929 55.7217677,92.2833159 C55.7217677,91.4112278 56.4232838,90.7064356 57.2911085,90.7064356 L65.0136575,90.7064356 L61.2326012,81.5923878 L46.2277072,81.5923878 L42.4466509,90.7064356 L50.1691999,90.7064356 C51.0372342,90.7064356 51.7385406,91.4114385 51.7385406,92.2833159 C51.7385406,93.1610929 51.0370245,93.8660958 50.1691999,93.8660958 L34.1475794,93.8660958 L34.1475794,96.8405505 L73.3125192,96.8405505 L73.3125192,93.8660958 L57.2911085,93.8660958 Z M82.5452677,34.0917136 L82.5452677,25.9388801 C82.5452677,25.066792 83.2467837,24.3561002 84.1206903,24.3561002 C84.9887247,24.3561002 85.6900311,25.066792 85.6900311,25.9388801 L85.6900311,34.0917136 L88.6506596,34.0917136 L88.6506596,25.9388801 L88.656322,25.9388801 C88.656322,25.461012 88.8763192,24.989465 89.286533,24.6788929 C90.3506564,23.8727539 91.2245629,22.8274702 91.8249936,21.6207902 C92.4015161,20.4680494 92.7225986,19.154123 92.7225986,17.7565486 C92.7225986,15.8391768 92.1102139,14.0714021 91.0639168,12.6436975 C90.4339155,11.7836193 89.6432681,11.0371085 88.7454534,10.457683 L88.7454534,16.7049439 C88.7454534,17.3201885 88.3828461,17.9057243 87.7824155,18.1564575 L84.7267834,19.4465749 C84.3522221,19.6079712 83.9122278,19.6197704 83.5080959,19.4465749 L80.5000704,18.1802667 C79.9111744,17.9535532 79.4892162,17.3741277 79.4892162,16.7049439 L79.4892162,10.457683 C78.5916112,11.0371085 77.8009638,11.7836193 77.1707528,12.6436975 C76.1303279,14.0711914 75.512071,15.8391768 75.512071,17.7565486 C75.512071,19.154123 75.8331535,20.4680494 76.409676,21.6207902 C76.9922804,22.7853302 77.8305344,23.8068048 78.8470511,24.6011445 C79.2929175,24.8822186 79.5844294,25.3777855 79.5844294,25.9390908 L79.5844294,34.0917136 L82.5452677,34.0917136 L82.5452677,34.0917136 Z" id="Shape"></path>
                </g>
            </g>
        </g>
    </g>
</svg>