<?xml version="1.0" encoding="UTF-8"?>
<svg width="100px" height="109px" viewBox="0 0 100 109" version="1.1" xmlns="http://www.w3.org/2000/svg" xmlns:xlink="http://www.w3.org/1999/xlink">
    <title>F543CE6C-FA14-4656-A3FC-9A16D014AA23@1x</title>
    <g id="Page-1" stroke="none" stroke-width="1" fill="none" fill-rule="evenodd">
        <g id="jade&amp;co" transform="translate(-218.000000, -2795.000000)" fill="#5FCE79">
            <g id="Block-Why-US" transform="translate(0.000000, 2551.000000)">
                <g id="icon1" transform="translate(218.000000, 244.000000)">
                    <path d="M11.4333938,94.1767925 C8.27550252,94.1767925 5.70661479,96.7889356 5.70661479,100 C5.70661479,103.209437 8.27550252,105.823208 11.4333938,105.823208 L91.8723913,105.823208 C95.0302826,105.823208 97.5991703,103.209437 97.5991703,100 C97.5991703,96.7889356 95.0302826,94.1767925 91.8723913,94.1767925 L11.4333938,94.1767925 Z M91.8723913,108.264463 L11.4333938,108.264463 C6.9518451,108.264463 3.30578512,104.55701 3.30578512,100 C3.30578512,95.4429902 6.9518451,91.7355372 11.4333938,91.7355372 L91.8723913,91.7355372 C96.35394,91.7355372 100,95.4429902 100,100 C100,104.55701 96.35394,108.264463 91.8723913,108.264463 L91.8723913,108.264463 Z" id="Fill-276"></path>
                    <path d="M11.5693911,97.6119173 C10.2532464,97.6119173 9.18216521,98.6829985 9.18216521,100.000857 C9.18216521,101.317001 10.2532464,102.388083 11.5693911,102.388083 C12.8872494,102.388083 13.9583307,101.317001 13.9583307,100.000857 C13.9583307,98.6829985 12.8872494,97.6119173 11.5693911,97.6119173 Z M11.5693911,104.958678 C8.83599176,104.958678 6.61157025,102.73597 6.61157025,100.000857 C6.61157025,97.2657438 8.83599176,95.0413223 11.5693911,95.0413223 C14.3045041,95.0413223 16.5289256,97.2657438 16.5289256,100.000857 C16.5289256,102.73597 14.3045041,104.958678 11.5693911,104.958678 L11.5693911,104.958678 Z" id="Fill-277"></path>
                    <path d="M91.7355372,97.6119173 C90.41962,97.6119173 89.3470103,98.6829985 89.3470103,100.000857 C89.3470103,101.317001 90.41962,102.388083 91.7355372,102.388083 C93.0531679,102.388083 94.124064,101.317001 94.124064,100.000857 C94.124064,98.6829985 93.0531679,97.6119173 91.7355372,97.6119173 Z M91.7355372,104.958678 C89.0008967,104.958678 86.7768595,102.73597 86.7768595,100.000857 C86.7768595,97.2657438 89.0008967,95.0413223 91.7355372,95.0413223 C94.4701777,95.0413223 96.6942149,97.2657438 96.6942149,100.000857 C96.6942149,102.73597 94.4701777,104.958678 91.7355372,104.958678 L91.7355372,104.958678 Z" id="Fill-278"></path>
                    <path d="M32.1908667,91.9755888 L64.5033482,91.9755888 L64.5033482,88.1897005 L32.1908667,88.1897005 L32.1908667,91.9755888 Z M29.7520661,94.214876 L66.9421488,94.214876 L66.9421488,85.9504132 L29.7520661,85.9504132 L29.7520661,94.214876 Z" id="Fill-279"></path>
                    <path d="M37.079676,85.2335673 L59.6145388,85.2335673 L59.6145388,77.6867403 C59.6145388,73.5238998 56.2301243,70.1383335 52.0702793,70.1383335 L44.6239356,70.1383335 C40.4640906,70.1383335 37.079676,73.5238998 37.079676,77.6867403 L37.079676,85.2335673 Z M61.9834711,87.6033058 L34.7107438,87.6033058 L34.7107438,77.6867403 C34.7107438,72.217384 39.1580193,67.768595 44.6239356,67.768595 L52.0702793,67.768595 C57.5361956,67.768595 61.9834711,72.217384 61.9834711,77.6867403 L61.9834711,87.6033058 L61.9834711,87.6033058 Z" id="Fill-280"></path>
                    <polyline id="Fill-281" points="34.6590106 78.5123967 11.5702479 55.4236341 13.2748737 53.7190083 36.3636364 76.8077709 34.6590106 78.5123967"></polyline>
                    <polyline id="Fill-282" points="43.733677 69.4214876 19.8347107 45.5226304 21.5555792 43.8016529 45.4545455 67.7005101 43.733677 69.4214876"></polyline>
                    <polygon id="Fill-283" points="47.107438 85.9504132 49.5867769 85.9504132 49.5867769 77.6859504 47.107438 77.6859504"></polygon>
                    <path d="M11.5694466,33.8137242 C9.22158136,33.8137242 6.87531874,34.7063938 5.08837692,36.4933356 C1.51449329,40.0672192 1.51449329,45.883194 5.08837692,49.4570776 C8.66226056,53.0309613 14.4766327,53.0309613 18.0521189,49.4570776 C21.6260026,45.883194 21.6260026,40.0672192 18.0521189,36.4933356 C16.2635745,34.7063938 13.9173119,33.8137242 11.5694466,33.8137242 Z M11.5694466,54.5454545 C8.47955978,54.5454545 5.57397636,53.3434757 3.38797758,51.157477 C1.20358144,48.9714782 0,46.0658948 0,42.9760079 C0,39.8845185 1.20358144,36.978935 3.38797758,34.7929363 C5.57397636,32.6069375 8.47955978,31.4049587 11.5694466,31.4049587 C14.6609361,31.4049587 17.5665195,32.6069375 19.7509157,34.7929363 C21.9369144,36.978935 23.1404959,39.8845185 23.1404959,42.9760079 C23.1404959,46.0658948 21.9369144,48.9714782 19.7509157,51.157477 C17.5665195,53.3434757 14.6609361,54.5454545 11.5694466,54.5454545 L11.5694466,54.5454545 Z" id="Fill-284"></path>
                    <path d="M11.9828707,38.7650015 C10.798096,38.7650015 9.61332128,39.2148572 8.71193187,40.1177705 C6.90755202,41.9219961 6.90755202,44.8564643 8.71193187,46.6606899 C10.5147107,48.4649156 13.4494296,48.4633147 15.2554105,46.6606899 C17.0581893,44.8564643 17.0581893,41.9219961 15.2554105,40.1177705 C14.3524201,39.2148572 13.1692464,38.7650015 11.9828707,38.7650015 Z M11.9828707,50.4132231 C10.183294,50.4132231 8.38371726,49.7296345 7.01322112,48.3592555 C4.27382988,45.6184975 4.27382988,41.1599629 7.01322112,38.4192049 C9.75261236,35.6784469 14.211528,35.6784469 16.9525202,38.4192049 C19.6935125,41.1599629 19.6935125,45.6184975 16.9525202,48.3592555 C15.5836252,49.7296345 13.7824474,50.4132231 11.9828707,50.4132231 L11.9828707,50.4132231 Z" id="Fill-285"></path>
                    <path d="M46.281805,3.26480695 C44.7886389,3.26480695 43.2954728,3.83246333 42.1601461,4.9694026 C39.8878662,7.24165462 39.8878662,10.9387404 42.1601461,13.2126189 C44.4307996,15.4832444 48.1295574,15.484871 50.4018373,13.2126189 C52.6757439,10.9387404 52.6757439,7.24165462 50.4018373,4.9694026 C49.2665106,3.83246333 47.7733445,3.26480695 46.281805,3.26480695 Z M46.281805,17.3553719 C44.1640466,17.3553719 42.0462881,16.5486167 40.4343845,14.9367329 C37.2105771,11.7129651 37.2105771,6.46742988 40.4343845,3.24366216 C43.6565653,0.021520967 48.9037916,0.0198944445 52.127599,3.24366216 C55.3514064,6.46742988 55.3514064,11.7129651 52.127599,14.9367329 C50.5156953,16.5486167 48.3979369,17.3553719 46.281805,17.3553719 L46.281805,17.3553719 Z" id="Fill-286"></path>
                    <path d="M70.2479339,30.6162688 C68.4471106,30.6162688 66.9802703,32.0828963 66.9802703,33.8851366 C66.9802703,35.6856987 68.4471106,37.1523262 70.2479339,37.1523262 C72.0487572,37.1523262 73.5155975,35.6856987 73.5155975,33.8851366 C73.5155975,32.0828963 72.0487572,30.6162688 70.2479339,30.6162688 Z M70.2479339,39.6694215 C67.0591507,39.6694215 64.4628099,37.0751353 64.4628099,33.8851366 C64.4628099,30.6951378 67.0591507,28.0991736 70.2479339,28.0991736 C73.436717,28.0991736 76.0330579,30.6951378 76.0330579,33.8851366 C76.0330579,37.0751353 73.436717,39.6694215 70.2479339,39.6694215 L70.2479339,39.6694215 Z" id="Fill-287"></path>
                    <polyline id="Fill-288" points="16.5656589 34.7107438 14.8760331 33.0211179 37.9797956 9.91735537 39.6694215 11.6069812 16.5656589 34.7107438"></polyline>
                    <polyline id="Fill-289" points="21.5243366 40.4958678 19.8347107 38.807726 42.9384733 15.7024793 44.6280992 17.3922137 21.5243366 40.4958678"></polyline>
                    <polyline id="Fill-290" points="64.4125629 33.0578512 47.9338843 16.5807794 49.6370239 14.8760331 66.1157025 31.3531049 64.4125629 33.0578512"></polyline>
                    <polyline id="Fill-291" points="67.7167413 28.9256198 51.2396694 12.4485479 52.942809 10.7438017 69.4214876 27.2224803 67.7167413 28.9256198"></polyline>
                    <path d="M65.9232856,51.2396694 C62.5244464,49.5482611 60.3305785,45.9224072 60.3305785,42.0026095 C60.3305785,38.2913641 62.2657876,34.8642096 65.3838875,33.0578512 L66.5352344,35.2090599 C64.1662987,36.5818922 62.6963599,39.1846904 62.6963599,42.0026095 C62.6963599,44.9781744 64.3618699,47.7320499 66.9421488,49.0162065 L65.9232856,51.2396694" id="Fill-292"></path>
                    <path d="M74.5736727,51.2396694 L73.553719,49.0113764 C76.1327674,47.7244301 77.8006361,44.966218 77.8006361,41.9825435 C77.8006361,39.1848343 76.348739,36.5879019 74.0124617,35.2055045 L75.1790239,33.0578512 C78.2546495,34.8780079 80.1652893,38.2977959 80.1652893,41.9825435 C80.1652893,45.9108563 77.9693147,49.5445868 74.5736727,51.2396694" id="Fill-293"></path>
                    <polygon id="Fill-294" points="19.0082645 40.4958678 21.4876033 40.4958678 21.4876033 29.7520661 19.0082645 29.7520661"></polygon>
                    <polygon id="Fill-295" points="23.9669421 35.5371901 26.446281 35.5371901 26.446281 24.7933884 23.9669421 24.7933884"></polygon>
                    <polygon id="Fill-296" points="28.9256198 30.5785124 31.4049587 30.5785124 31.4049587 19.8347107 28.9256198 19.8347107"></polygon>
                    <polygon id="Fill-297" points="32.231405 26.446281 34.7107438 26.446281 34.7107438 15.7024793 32.231405 15.7024793"></polygon>
                    <polygon id="Fill-298" points="37.1900826 21.4876033 39.6694215 21.4876033 39.6694215 10.7438017 37.1900826 10.7438017"></polygon>
                    <path d="M2.82103872,37.1900826 C0.161582135,35.1392332 0.161582135,31.8029156 2.82103872,29.7520661 L4.95867769,31.3977137 C3.47582917,32.5419045 3.47582917,34.4002443 4.95867769,35.5428826 L2.82103872,37.1900826" id="Fill-299"></path>
                    <path d="M40.4652978,4.95867769 C37.9742176,2.05183478 33.9234355,2.05368745 31.4355286,4.95867769 L29.7520661,2.99299233 C33.1681781,-0.995811223 38.729475,-0.999516568 42.1487603,2.99299233 L40.4652978,4.95867769" id="Fill-300"></path>
                    <polyline id="Fill-301" points="27.3836326 9.09090909 25.6198347 7.32826712 29.6411608 3.30578512 31.4049587 5.07008996 27.3836326 9.09090909"></polyline>
                    <polyline id="Fill-302" points="14.8465513 21.4876033 13.2231405 19.8630373 18.2097684 14.8760331 19.8347107 16.5005991 14.8465513 21.4876033"></polyline>
                    <polyline id="Fill-303" points="4.94375431 30.5785124 3.30578512 28.9417473 9.10583247 23.1404959 10.7438017 24.7788051 4.94375431 30.5785124"></polyline>
                    <polyline id="Fill-304" points="13.7192753 24.7933884 9.91735537 20.9902397 11.9005594 19.0082645 15.7024793 22.8114132 13.7192753 24.7933884"></polyline>
                    <path d="M23.5530681,11.3215648 C23.383448,11.3215648 23.2138279,11.3855423 23.084381,11.514985 C22.8269751,11.7738705 22.8269751,12.1934436 23.0858689,12.4523291 C23.3343475,12.7022875 23.7717887,12.7022875 24.0217552,12.4523291 C24.2791611,12.1934436 24.280649,11.7738705 24.0217552,11.514985 C23.8923083,11.3855423 23.7226882,11.3215648 23.5530681,11.3215648 Z M23.5530681,14.8760331 C22.8120961,14.8760331 22.0711241,14.5948298 21.5072117,14.0294477 C20.3793869,12.9016591 20.3793869,11.065655 21.5057238,9.93786642 C22.6350365,8.80858998 24.4710997,8.80858998 25.6004124,9.93786642 C26.7282372,11.065655 26.7282372,12.9016591 25.6004124,14.0294477 C25.0365,14.5948298 24.2940401,14.8760331 23.5530681,14.8760331 L23.5530681,14.8760331 Z" id="Fill-305"></path>
                    <path d="M18.1818182,99.1735537 L21.4029008,99.1735537 L21.4029008,96.6942149 L18.1818182,96.6942149 L18.1818182,99.1735537 Z M24.6239833,99.1735537 L27.8450659,99.1735537 L27.8450659,96.6942149 L24.6239833,96.6942149 L24.6239833,99.1735537 Z M31.0661485,99.1735537 L34.2872311,99.1735537 L34.2872311,96.6942149 L31.0661485,96.6942149 L31.0661485,99.1735537 Z M37.5083137,99.1735537 L40.7293963,99.1735537 L40.7293963,96.6942149 L37.5083137,96.6942149 L37.5083137,99.1735537 Z M43.9504788,99.1735537 L47.1715614,99.1735537 L47.1715614,96.6942149 L43.9504788,96.6942149 L43.9504788,99.1735537 Z M50.392644,99.1735537 L53.6137266,99.1735537 L53.6137266,96.6942149 L50.392644,96.6942149 L50.392644,99.1735537 Z M56.8348092,99.1735537 L60.0558917,99.1735537 L60.0558917,96.6942149 L56.8348092,96.6942149 L56.8348092,99.1735537 Z M63.2769743,99.1735537 L66.4980569,99.1735537 L66.4980569,96.6942149 L63.2769743,96.6942149 L63.2769743,99.1735537 Z M69.7191395,99.1735537 L72.9402221,99.1735537 L72.9402221,96.6942149 L69.7191395,96.6942149 L69.7191395,99.1735537 Z M76.1613047,99.1735537 L79.3823872,99.1735537 L79.3823872,96.6942149 L76.1613047,96.6942149 L76.1613047,99.1735537 Z M82.6034698,99.1735537 L85.1239669,99.1735537 L85.1239669,96.6942149 L82.6034698,96.6942149 L82.6034698,99.1735537 Z" id="Fill-306"></path>
                    <path d="M18.1818182,104.132231 L21.4029008,104.132231 L21.4029008,101.652893 L18.1818182,101.652893 L18.1818182,104.132231 Z M24.6239833,104.132231 L27.8450659,104.132231 L27.8450659,101.652893 L24.6239833,101.652893 L24.6239833,104.132231 Z M31.0661485,104.132231 L34.2872311,104.132231 L34.2872311,101.652893 L31.0661485,101.652893 L31.0661485,104.132231 Z M37.5083137,104.132231 L40.7293963,104.132231 L40.7293963,101.652893 L37.5083137,101.652893 L37.5083137,104.132231 Z M43.9504788,104.132231 L47.1715614,104.132231 L47.1715614,101.652893 L43.9504788,101.652893 L43.9504788,104.132231 Z M50.392644,104.132231 L53.6137266,104.132231 L53.6137266,101.652893 L50.392644,101.652893 L50.392644,104.132231 Z M56.8348092,104.132231 L60.0558917,104.132231 L60.0558917,101.652893 L56.8348092,101.652893 L56.8348092,104.132231 Z M63.2769743,104.132231 L66.4980569,104.132231 L66.4980569,101.652893 L63.2769743,101.652893 L63.2769743,104.132231 Z M69.7191395,104.132231 L72.9402221,104.132231 L72.9402221,101.652893 L69.7191395,101.652893 L69.7191395,104.132231 Z M76.1613047,104.132231 L79.3823872,104.132231 L79.3823872,101.652893 L76.1613047,101.652893 L76.1613047,104.132231 Z M82.6034698,104.132231 L85.1239669,104.132231 L85.1239669,101.652893 L82.6034698,101.652893 L82.6034698,104.132231 Z" id="Fill-307"></path>
                </g>
            </g>
        </g>
    </g>
</svg>