<?xml version="1.0" encoding="UTF-8"?>
<svg width="124px" height="100px" viewBox="0 0 124 100" version="1.1" xmlns="http://www.w3.org/2000/svg" xmlns:xlink="http://www.w3.org/1999/xlink">
    <title>5A64DE74-732B-4C97-BEAB-4155BDA7590E@1x</title>
    <g id="Page-1" stroke="none" stroke-width="1" fill="none" fill-rule="evenodd">
        <g id="jade&amp;co" transform="translate(-666.000000, -2799.000000)" fill="#5FCE79">
            <g id="Block-Why-US" transform="translate(0.000000, 2551.000000)">
                <g id="icon2" transform="translate(666.000000, 248.000000)">
                    <path d="M85.3423517,50.7692308 L85.3423517,48.2741831 C90.7640378,48.2741831 95.1729368,43.9078496 95.1729368,38.5385069 C95.1729368,33.7363717 91.696205,29.6993846 86.9043616,28.9392267 L85.7370531,28.7545932 L85.849585,27.5885742 C85.9201274,26.863347 85.9637965,26.1281396 85.9637965,25.3846154 C85.9637965,12.7630007 75.5940659,2.49504771 62.8494085,2.49504771 C51.9976383,2.49504771 42.7381105,9.81551768 40.3329511,20.2947181 L40.0994894,21.3043807 L38.7759799,21.2494896 C38.6768847,21.2428362 38.5777894,21.2345194 38.4786942,21.2345194 C30.950814,21.2345194 24.8270632,27.300812 24.8270632,34.7543512 C24.8270632,42.2078904 30.950814,48.2741831 38.4786942,48.2741831 L38.4786942,50.7692308 C29.5618009,50.7692308 22.3076923,43.5851567 22.3076923,34.7543512 C22.3076923,26.0399812 29.3703287,18.9290953 38.1259823,18.7427984 C41.1374702,7.65646973 51.1612072,0 62.8494085,0 C76.9830791,0 88.4831673,11.3873977 88.4831673,25.3846154 C88.4831673,25.8170903 88.4697307,26.2562187 88.444537,26.7103174 C93.8679027,28.0875837 97.6923077,32.8930456 97.6923077,38.5385069 C97.6923077,45.2834525 92.1530509,50.7692308 85.3423517,50.7692308" id="Fill-161"></path>
                    <path d="M66.47848,2.69298816 L66.1538462,0.219564198 C67.2354069,0.0748514313 68.3467809,0.00166336514 69.4598112,0 L69.4631238,2.49504771 C68.4577526,2.49671107 67.4540378,2.56324568 66.47848,2.69298816 Z M78.6207794,4.40625425 C76.7027897,3.56126476 74.6754845,2.98906715 72.5951778,2.70463172 L72.9314057,0.232871119 C75.2386248,0.550573861 77.4878736,1.18265261 79.6178691,2.11912719 L78.6207794,4.40625425 Z M86.2364243,9.86042854 C84.8103542,8.31349896 83.1838724,6.96783657 81.3983863,5.86668884 L82.7002342,3.7409082 C84.6778506,4.96181821 86.481556,6.45053001 88.0616615,8.1687862 L86.2364243,9.86042854 Z M91.0413364,17.921096 C90.3589428,15.9317113 89.4049168,14.0471186 88.2041029,12.3188822 L90.2413459,10.8917149 C91.5730071,12.8095749 92.633036,14.9004249 93.3899629,17.1093738 L91.0413364,17.921096 Z M94.6752479,27.4505149 L92.1990867,27.245921 C92.2504318,26.6304759 92.2785888,26.011704 92.2802451,25.382952 C92.2802451,23.897567 92.1378038,22.4105185 91.8562336,20.9700443 L94.2943,20.4893318 C94.6056835,22.089489 94.7646878,23.7362205 94.7646878,25.3846154 C94.7630315,26.0832287 94.7315619,26.7701985 94.6752479,27.4505149 Z M100.008518,33.5816788 C98.9948655,31.8717394 97.5058562,30.5277404 95.7054634,29.6993846 L96.7389916,27.4322179 C99.0014907,28.4718211 100.869792,30.15681 102.143482,32.3042144 L100.008518,33.5816788 Z M103.008069,43.0046423 L100.695881,42.0947816 C101.138111,40.9620299 101.361711,39.7660704 101.361711,38.5385069 C101.361711,37.7816758 101.275584,37.0281714 101.104985,36.3012808 L103.523176,35.7290832 C103.736838,36.643934 103.846154,37.5887254 103.846154,38.5385069 C103.846154,40.078783 103.564584,41.5808017 103.008069,43.0046423 Z M95.1356979,50.2652311 L94.4301162,47.8749754 C96.3232615,47.3094313 97.9828692,46.1899865 99.2284031,44.6330768 L101.164612,46.19664 C99.5994132,48.151094 97.515794,49.5566376 95.1356979,50.2652311 Z M84.8882001,50.7692308 L91.5150368,50.7692308 L91.5150368,48.2741831 L84.8882001,48.2741831 L84.8882001,50.7692308 Z" id="Fill-162"></path>
                    <path d="M56.9879839,27.1120225 C56.207436,27.1120225 55.5733449,27.7461685 55.5733449,28.5251195 L55.5733449,39.936419 C55.5733449,40.7170344 56.207436,41.349516 56.9879839,41.349516 L68.3966315,41.349516 C69.1755151,41.349516 69.8112705,40.7170344 69.8112705,39.936419 L69.8112705,28.5251195 C69.8112705,27.7461685 69.1755151,27.1120225 68.3966315,27.1120225 L56.9879839,27.1120225 Z M68.3966315,43.8461538 L56.9879839,43.8461538 C54.8310755,43.8461538 53.0769231,42.0935141 53.0769231,39.936419 L53.0769231,28.5251195 C53.0769231,26.3680244 54.8310755,24.6153846 56.9879839,24.6153846 L68.3966315,24.6153846 C70.5535399,24.6153846 72.3076923,26.3680244 72.3076923,28.5251195 L72.3076923,39.936419 C72.3076923,42.0935141 70.5535399,43.8461538 68.3966315,43.8461538 L68.3966315,43.8461538 Z" id="Fill-163"></path>
                    <polygon id="Fill-164" points="62.3076923 66.9230769 64.6153846 66.9230769 64.6153846 43.0769231 62.3076923 43.0769231"></polygon>
                    <polygon id="Fill-165" points="46.9230769 91.5384615 49.2307692 91.5384615 49.2307692 88.4615385 46.9230769 88.4615385"></polygon>
                    <polygon id="Fill-166" points="46.9230769 85.3846154 49.2307692 85.3846154 49.2307692 80 46.9230769 80"></polygon>
                    <polyline id="Fill-167" points="48.7236594 77.6923077 46.1538462 77.6923077 46.1538462 73.6374629 48.9532294 70.7692308 50.7692308 72.6316508 48.7236594 74.7275316 48.7236594 77.6923077"></polyline>
                    <polyline id="Fill-168" points="51.9009795 70.7692308 50 68.8682513 52.7161968 66.1538462 54.6153846 68.0530339 51.9009795 70.7692308"></polyline>
                    <polyline id="Fill-169" points="55.6631939 66.9230769 53.8461538 65.0624122 55.8926787 62.9665314 55.8926787 60 58.4615385 60 58.4615385 64.0566001 55.6631939 66.9230769"></polyline>
                    <polygon id="Fill-170" points="56.1538462 56.9230769 58.4615385 56.9230769 58.4615385 50 56.1538462 50"></polygon>
                    <polygon id="Fill-171" points="56.1538462 46.1538462 58.4615385 46.1538462 58.4615385 43.0769231 56.1538462 43.0769231"></polygon>
                    <polyline id="Fill-172" points="81.0983683 76.9230769 78.4615385 74.2843823 80.4400932 72.3076923 83.0769231 74.9445221 81.0983683 76.9230769"></polyline>
                    <path d="M66.9230769,55.4761309 L69.5940171,55.4761309 L69.5940171,49.2307692 L66.9230769,49.2307692 L66.9230769,55.4761309 Z M69.4248575,64.9118424 L66.9230769,62.5929383 L66.9230769,58.6004621 L69.5940171,58.6004621 L69.5940171,61.5679992 L71.3141026,63.1606984 L69.4248575,64.9118424 Z M76.5740741,71.5384615 L71.8073362,67.1201653 L73.6965812,65.3690213 L78.4615385,69.7873176 L76.5740741,71.5384615 L76.5740741,71.5384615 Z" id="Fill-173"></path>
                    <polygon id="Fill-174" points="67.6923077 46.1538462 70 46.1538462 70 43.0769231 67.6923077 43.0769231"></polygon>
                    <polyline id="Fill-175" points="112.307692 60.7692308 77.2796073 60.7692308 77.2796073 40.9797156 71.5384615 40.9797156 71.5384615 38.4615385 79.8139565 38.4615385 79.8139565 58.2510536 112.307692 58.2510536 112.307692 60.7692308"></polyline>
                    <polyline id="Fill-176" points="40.1384337 70 8.46153846 70 8.46153846 67.4810977 39.0845737 67.4810977 46.8841563 59.7631812 46.8841563 39.2307692 55.3846154 39.2307692 55.3846154 41.7496715 49.4297121 41.7496715 49.4297121 60.8060067 40.1384337 70"></polyline>
                    <path d="M63.0769231,67.7976781 C61.8619247,67.7976781 60.8754425,68.7870338 60.8754425,70 C60.8754425,71.2145749 61.8619247,72.2023219 63.0769231,72.2023219 C64.2919215,72.2023219 65.2784036,71.2145749 65.2784036,70 C65.2784036,68.7870338 64.2919215,67.7976781 63.0769231,67.7976781 Z M63.0769231,74.6153846 C60.5310589,74.6153846 58.4615385,72.5449768 58.4615385,70 C58.4615385,67.4550232 60.5310589,65.3846154 63.0769231,65.3846154 C65.621178,65.3846154 67.6923077,67.4550232 67.6923077,70 C67.6923077,72.5449768 65.621178,74.6153846 63.0769231,74.6153846 L63.0769231,74.6153846 Z" id="Fill-177"></path>
                    <path d="M115.384615,57.7980987 C114.171226,57.7980987 113.183135,58.7860179 113.183135,60.0008045 C113.183135,61.2155911 114.171226,62.2019013 115.384615,62.2019013 C116.599614,62.2019013 117.586096,61.2155911 117.586096,60.0008045 C117.586096,58.7860179 116.599614,57.7980987 115.384615,57.7980987 Z M115.384615,64.6153846 C112.84036,64.6153846 110.769231,62.5446159 110.769231,60.0008045 C110.769231,57.4553841 112.84036,55.3846154 115.384615,55.3846154 C117.93048,55.3846154 120,57.4553841 120,60.0008045 C120,62.5446159 117.93048,64.6153846 115.384615,64.6153846 L115.384615,64.6153846 Z" id="Fill-178"></path>
                    <path d="M4.61618911,66.2600579 C3.4014025,66.2600579 2.41348333,67.2465401 2.41348333,68.4615385 C2.41348333,69.6765369 3.4014025,70.663019 4.61618911,70.663019 C5.82936673,70.663019 6.8172859,69.6765369 6.8172859,68.4615385 C6.8172859,67.2465401 5.82936673,66.2600579 4.61618911,66.2600579 Z M4.61618911,73.0769231 C2.07076869,73.0769231 0,71.0057934 0,68.4615385 C0,65.9172836 2.07076869,63.8461538 4.61618911,63.8461538 C7.16000054,63.8461538 9.23076923,65.9172836 9.23076923,68.4615385 C9.23076923,71.0057934 7.16000054,73.0769231 4.61618911,73.0769231 L4.61618911,73.0769231 Z" id="Fill-179"></path>
                    <path d="M17.6915032,90.105791 C16.4767166,90.105791 15.4904064,91.0921012 15.4904064,92.3068878 C15.4904064,93.5216744 16.4767166,94.5095936 17.6915032,94.5095936 C18.9062898,94.5095936 19.894209,93.5216744 19.894209,92.3068878 C19.894209,91.0921012 18.9062898,90.105791 17.6915032,90.105791 Z M17.6915032,96.9230769 C15.1476918,96.9230769 13.0769231,94.8523082 13.0769231,92.3068878 C13.0769231,89.7630764 15.1476918,87.6923077 17.6915032,87.6923077 C20.2369236,87.6923077 22.3076923,89.7630764 22.3076923,92.3068878 C22.3076923,94.8523082 20.2369236,96.9230769 17.6915032,96.9230769 L17.6915032,96.9230769 Z" id="Fill-180"></path>
                    <path d="M118.460734,78.5677502 C117.247556,78.5677502 116.259637,79.5542324 116.259637,80.7692308 C116.259637,81.9842292 117.247556,82.9707113 118.460734,82.9707113 C119.675521,82.9707113 120.66344,81.9842292 120.66344,80.7692308 C120.66344,79.5542324 119.675521,78.5677502 118.460734,78.5677502 Z M118.460734,85.3846154 C115.916923,85.3846154 113.846154,83.3134857 113.846154,80.7692308 C113.846154,78.2249759 115.916923,76.1538462 118.460734,76.1538462 C121.006154,76.1538462 123.076923,78.2249759 123.076923,80.7692308 C123.076923,83.3134857 121.006154,85.3846154 118.460734,85.3846154 L118.460734,85.3846154 Z" id="Fill-181"></path>
                    <path d="M45.5236723,97.5528183 L49.8609431,97.5528183 L49.8609431,93.2164124 L45.5236723,93.2164124 L45.5236723,97.5528183 Z M43.0769231,100 L52.3076923,100 L52.3076923,90.7692308 L43.0769231,90.7692308 L43.0769231,100 Z" id="Fill-182"></path>
                    <path d="M83.9856432,81.3989722 L88.3220491,81.3989722 L88.3220491,77.0625663 L83.9856432,77.0625663 L83.9856432,81.3989722 Z M81.5384615,83.8461538 L90.7692308,83.8461538 L90.7692308,74.6153846 L81.5384615,74.6153846 L81.5384615,83.8461538 Z" id="Fill-183"></path>
                    <path d="M24.3982333,72.5801151 L22.5605664,70.8184134 L26.6238715,66.9230769 L28.4615385,68.6831181 L24.3982333,72.5801151 Z M18.7518673,79.2682717 L16.1538462,79.2682717 L16.1538462,76.9602931 L20.1114984,73.166242 L21.9474334,74.9279437 L18.7518673,77.9914116 L18.7518673,79.2682717 Z M16.1538462,89.2307692 L18.7518673,89.2307692 L18.7518673,82.5891042 L16.1538462,82.5891042 L16.1538462,89.2307692 Z" id="Fill-184"></path>
                    <path d="M95.3846154,63.5457853 L97.8781737,63.5457853 L97.8781737,60 L95.3846154,60 L95.3846154,63.5457853 Z M97.7701195,73.482556 L95.3846154,71.1170507 L95.3846154,66.8426568 L97.8781737,66.8426568 L97.8781737,70.0933721 L99.532234,71.7335657 L97.7701195,73.482556 Z M104.821902,80.4752205 L100.120714,75.8134442 L101.882828,74.0644538 L106.585679,78.7262301 L104.821902,80.4752205 Z M108.735127,81.5384615 L115.384615,81.5384615 L115.384615,79.0658079 L108.735127,79.0658079 L108.735127,81.5384615 Z" id="Fill-185"></path>
                </g>
            </g>
        </g>
    </g>
</svg>