<?xml version="1.0" encoding="UTF-8"?>
<svg width="236px" height="56px" viewBox="0 0 236 56" version="1.1" xmlns="http://www.w3.org/2000/svg" xmlns:xlink="http://www.w3.org/1999/xlink">
    <title>A54B6E5A-6DF5-4261-B8F1-AFFFFC01A681@1x</title>
    <g id="Page-1" stroke="none" stroke-width="1" fill="none" fill-rule="evenodd">
        <g id="jade&amp;co" transform="translate(-46.000000, -24.000000)" fill-rule="nonzero">
            <g id="Logo" transform="translate(46.000000, 24.000000)">
                <g id="JADE&amp;CO">
                    <path d="M9.97318163,34.8885906 C13.0738182,34.8885906 15.6150616,33.9060403 17.5969118,31.9409396 C19.578762,29.9758389 20.5696871,27.0281879 20.5696871,23.0979866 L20.5696871,23.0979866 L20.5696871,0.82147651 L4.26737099,0.82147651 L4.26737099,5.94362416 L14.9118245,5.94362416 L14.9118245,23.3879195 C14.9118245,25.3852349 14.3923879,26.8832215 13.3535148,27.8818792 C12.3146417,28.8805369 11.0600027,29.3798658 9.58959772,29.3798658 C7.51185155,29.3798658 5.38615739,28.3328859 3.21251524,26.2389262 L3.21251524,26.2389262 L0,30.7328859 C2.74901801,33.5033557 6.07341189,34.8885906 9.97318163,34.8885906 Z M30.9744007,34.5986577 L34.3307599,26.9154362 L51.1125559,26.9154362 L54.4689151,34.5986577 L60.5103616,34.5986577 L45.7423811,0.82147651 L39.7009346,0.82147651 L24.9329541,34.5986577 L30.9744007,34.5986577 Z M48.8110524,21.6483221 L36.6322633,21.6483221 L42.7216579,7.73154362 L48.8110524,21.6483221 Z M76.2852499,34.5986577 C82.7422457,34.5986577 87.5370446,33.0684564 90.6696465,30.0080537 C93.8022484,26.947651 95.3685494,22.7919463 95.3685494,17.5409396 C95.3685494,12.2899329 93.7543004,8.19060403 90.5258025,5.24295302 C87.2973046,2.29530201 82.678315,0.82147651 76.6688338,0.82147651 L76.6688338,0.82147651 L65.1613165,0.82147651 L65.1613165,34.5986577 L76.2852499,34.5986577 Z M77.1003657,29.2348993 L70.8191792,29.2348993 L70.8191792,6.0885906 L76.4770419,6.0885906 C85.2675064,6.0885906 89.6627387,9.95436242 89.6627387,17.685906 C89.6627387,21.4872483 88.583909,24.3624161 86.4262495,26.3114094 C84.26859,28.2604027 81.1599621,29.2348993 77.1003657,29.2348993 L77.1003657,29.2348993 Z M126.774482,34.5986577 L126.774482,29.2348993 L108.314506,29.2348993 L108.314506,20.1986577 L124.377082,20.1986577 L124.377082,15.1248322 L108.314506,15.1248322 L108.314506,6.1852349 L126.199106,6.1852349 L126.199106,0.82147651 L102.656644,0.82147651 L102.656644,34.5986577 L126.774482,34.5986577 Z" id="JADE" fill="#323232"></path>
                    <path d="M157.221455,36 L161.968306,31.4577181 L157.221455,26.7221477 C158.27631,24.9825503 159.17134,23.0979866 159.906542,21.0684564 L159.906542,21.0684564 L154.296627,17.009396 C153.881078,18.652349 153.273737,20.2147651 152.474604,21.6966443 C151.579575,20.6979866 150.237031,19.0711409 148.446973,16.8161074 C153.018014,14.1100671 155.303535,11.1785235 155.303535,8.02147651 C155.303535,5.50872483 154.352567,3.55167785 152.45063,2.15033557 C150.548693,0.748993289 148.255181,0.0483221477 145.570093,0.0483221477 C142.885006,0.0483221477 140.559529,0.773154362 138.593661,2.22281879 C136.627794,3.67248322 135.64486,5.76644295 135.64486,8.50469799 C135.64486,9.82550336 135.8846,10.9771812 136.36408,11.9597315 C136.84356,12.9422819 137.610727,14.0778523 138.665583,15.366443 C133.96668,18.104698 131.617229,21.2456376 131.617229,24.7892617 C131.617229,27.9463087 132.751998,30.4348993 135.021536,32.2550336 C137.291074,34.0751678 140.191927,34.9852349 143.724096,34.9852349 C147.256264,34.9852349 150.364892,33.8899329 153.04998,31.6993289 L153.04998,31.6993289 L157.221455,36 Z M144.754978,12.2255034 C143.476365,10.6147651 142.837058,9.38255034 142.837058,8.52885906 C142.837058,7.67516779 143.116755,6.99865772 143.676148,6.49932886 C144.235541,6 144.866856,5.75033557 145.570093,5.75033557 C146.273331,5.75033557 146.912637,5.99194631 147.488013,6.47516779 C148.063389,6.95838926 148.351077,7.66711409 148.351077,8.60134228 C148.351077,9.72885906 147.152377,10.9369128 144.754978,12.2255034 Z M143.74807,28.9449664 C142.277665,28.9449664 141.078965,28.5744966 140.151971,27.833557 C139.224976,27.0926174 138.761479,26.1583893 138.761479,25.0308725 C138.761479,23.2590604 139.992144,21.6 142.453474,20.0536913 C144.147636,22.0832215 146.161452,24.338255 148.494921,26.8187919 C146.800758,28.2362416 145.218475,28.9449664 143.74807,28.9449664 Z" id="&amp;" fill="#46A55C"></path>
                    <path d="M183.041447,34.9852349 C188.107951,34.9852349 192.415278,33.0040268 195.96343,29.0416107 L195.96343,29.0416107 L192.319382,25.2724832 C190.785047,26.7221477 189.314642,27.7771812 187.908167,28.4375839 C186.501693,29.0979866 184.823513,29.4281879 182.873629,29.4281879 C179.741027,29.4281879 177.031965,28.2765101 174.746445,25.9731544 C172.460924,23.6697987 171.318163,20.8026846 171.318163,17.3718121 C171.318163,13.9409396 172.468915,11.1221477 174.770419,8.91543624 C177.071922,6.70872483 179.916836,5.60536913 183.305161,5.60536913 C185.22308,5.60536913 186.893268,5.9114094 188.315725,6.52348993 C189.738182,7.13557047 191.248544,8.2147651 192.84681,9.76107383 L192.84681,9.76107383 L196.442909,5.79865772 C192.958689,1.93288591 188.619396,0 183.42503,0 C178.230665,0 173.931329,1.67516779 170.527022,5.02550336 C167.122714,8.37583893 165.420561,12.5637584 165.420561,17.5892617 C165.420561,22.6147651 167.090749,26.7704698 170.431126,30.0563758 C173.771502,33.3422819 177.974942,34.9852349 183.041447,34.9852349 Z M218.35514,34.9369128 C223.341731,34.9369128 227.529189,33.2778523 230.917513,29.9597315 C234.305838,26.609396 236,22.4456376 236,17.4684564 C236,12.4912752 234.305838,8.33557047 230.917513,5.00134228 C227.529189,1.66711409 223.341731,0 218.35514,0 C213.368549,0 209.181092,1.66711409 205.792767,5.00134228 C202.404443,8.33557047 200.71028,12.4912752 200.71028,17.4684564 C200.71028,22.4456376 202.404443,26.6013423 205.792767,29.9355705 C209.181092,33.2697987 213.368549,34.9369128 218.35514,34.9369128 Z M218.35514,29.7181208 C215.030746,29.7181208 212.225789,28.5261745 209.940268,26.1422819 C207.654747,23.7583893 206.511987,20.8671141 206.511987,17.4684564 C206.511987,14.0697987 207.654747,11.1785235 209.940268,8.79463087 C212.225789,6.41073826 215.030746,5.21879195 218.35514,5.21879195 C221.679534,5.21879195 224.4765,6.41073826 226.746038,8.79463087 C229.047542,11.1785235 230.198293,14.0697987 230.198293,17.4684564 C230.198293,20.8671141 229.055533,23.7583893 226.770012,26.1422819 C224.484491,28.5261745 221.679534,29.7181208 218.35514,29.7181208 Z" id="CO" fill="#323232"></path>
                </g>
                <path d="M142.595624,55.9817416 C143.460958,55.9817416 144.226895,55.8387172 144.893436,55.5526685 C145.559977,55.2666199 146.077423,54.8618914 146.445775,54.3384831 C146.814126,53.8150749 146.998302,53.2125468 146.998302,52.5308989 C146.998302,51.7518727 146.819973,51.125 146.463315,50.6502809 C146.106658,50.1755618 145.673991,49.8134363 145.165315,49.5639045 C144.656639,49.3143727 143.987174,49.0617978 143.156922,48.8061798 C142.443606,48.5749064 141.882308,48.3649345 141.473029,48.176264 C141.063749,47.9875936 140.718785,47.7289326 140.438136,47.4002809 C140.157488,47.0716292 140.017163,46.6455993 140.017163,46.122191 C140.017163,45.5257491 140.271501,45.054073 140.780177,44.7071629 C141.288853,44.3602528 141.964164,44.1867978 142.806111,44.1867978 C143.332327,44.1867978 143.893625,44.2750468 144.490004,44.4515449 C145.086382,44.6280431 145.635986,44.880618 146.138815,45.2092697 L146.138815,45.2092697 L146.665032,44.1320225 C146.150509,43.7911985 145.557054,43.5173221 144.884666,43.3103933 C144.212278,43.1034644 143.542814,43 142.876273,43 C142.04602,43 141.315164,43.1308521 140.683704,43.3925562 C140.052244,43.6542603 139.561109,44.0285581 139.210298,44.5154494 C138.859487,45.0023408 138.684081,45.5683521 138.684081,46.2134831 C138.684081,46.9681648 138.859487,47.5798221 139.210298,48.0484551 C139.561109,48.517088 139.987929,48.8700843 140.490758,49.1074438 C140.993587,49.3448034 141.660128,49.5973783 142.490381,49.8651685 C143.227084,50.1086142 143.800075,50.3216292 144.209355,50.5042135 C144.618634,50.6867978 144.963598,50.9485019 145.244247,51.2893258 C145.524896,51.6301498 145.66522,52.0683521 145.66522,52.6039326 C145.66522,53.2734082 145.390419,53.8059457 144.840815,54.2015449 C144.291211,54.5971442 143.548661,54.7949438 142.613165,54.7949438 C141.911543,54.7949438 141.198227,54.6367041 140.473218,54.3202247 C139.748208,54.0037453 139.110902,53.5655431 138.561298,53.005618 L138.561298,53.005618 L138,54.0463483 C138.584685,54.630618 139.283384,55.0992509 140.096096,55.4522472 C140.908808,55.8052434 141.741984,55.9817416 142.595624,55.9817416 Z M150.126367,55.8904494 L150.126367,43.127809 L148.916069,43.127809 L148.916069,55.8904494 L150.126367,55.8904494 Z M154.113919,55.8904494 L154.113919,45.0814607 L161.708978,55.8904494 L162.989438,55.8904494 L162.989438,43.127809 L161.79668,43.127809 L161.79668,53.9367978 L154.184082,43.127809 L152.903621,43.127809 L152.903621,55.8904494 L154.113919,55.8904494 Z M170.941154,56 C171.759713,56 172.560732,55.829588 173.34421,55.488764 C174.127688,55.1479401 174.823463,54.6853933 175.431535,54.1011236 L175.431535,54.1011236 L174.694832,53.2794944 C174.192003,53.7663858 173.619012,54.1467697 172.975858,54.4206461 C172.332705,54.6945225 171.67201,54.8314607 170.993776,54.8314607 C170.046586,54.8314607 169.178329,54.5910581 168.389004,54.1102528 C167.599679,53.6294476 166.974066,52.9812734 166.512165,52.1657303 C166.050264,51.3501873 165.819314,50.4555243 165.819314,49.4817416 C165.819314,48.5079588 166.050264,47.6102528 166.512165,46.7886236 C166.974066,45.9669944 167.599679,45.3188202 168.389004,44.8441011 C169.178329,44.369382 170.046586,44.1320225 170.993776,44.1320225 C171.683704,44.1320225 172.350245,44.2720037 172.993399,44.5519663 C173.636552,44.8319288 174.203697,45.2214419 174.694832,45.7205056 L174.694832,45.7205056 L175.413995,44.8441011 C174.82931,44.2720037 174.151075,43.8246723 173.379291,43.5021067 C172.607506,43.1795412 171.806488,43.0182584 170.976235,43.0182584 C169.818559,43.0182584 168.751509,43.3073502 167.775085,43.8855337 C166.798661,44.4637172 166.023953,45.2457865 165.450962,46.2317416 C164.877971,47.2176966 164.591475,48.30103 164.591475,49.4817416 C164.591475,50.6624532 164.875047,51.7518727 165.442192,52.75 C166.009336,53.7481273 166.778197,54.5393258 167.748774,55.1235955 C168.719351,55.7078652 169.783478,56 170.941154,56 Z M185.435496,55.8904494 L185.435496,54.758427 L178.208789,54.758427 L178.208789,49.9564607 L184.470766,49.9564607 L184.470766,48.8244382 L178.208789,48.8244382 L178.208789,44.2598315 L185.207469,44.2598315 L185.207469,43.127809 L176.998491,43.127809 L176.998491,55.8904494 L185.435496,55.8904494 Z M198.5149,55.8904494 L198.5149,54.758427 L191.340815,54.758427 L195.480385,50.2851124 C196.182007,49.5182584 196.734534,48.7787921 197.137967,48.0667135 C197.5414,47.3546348 197.743116,46.7125468 197.743116,46.1404494 C197.743116,45.2031835 197.395228,44.454588 196.699453,43.8946629 C196.003678,43.3347378 195.071105,43.0547753 193.901735,43.0547753 C193.176726,43.0547753 192.448793,43.2069288 191.717937,43.511236 C190.987081,43.8155431 190.323463,44.241573 189.727084,44.7893258 L189.727084,44.7893258 L190.270841,45.7205056 C190.773671,45.2336142 191.334968,44.8532303 191.954734,44.5793539 C192.5745,44.3054775 193.176726,44.1685393 193.761411,44.1685393 C194.615051,44.1685393 195.281592,44.3572097 195.761034,44.7345506 C196.240475,45.1118914 196.480196,45.6352996 196.480196,46.3047753 C196.480196,46.7308052 196.316484,47.232912 195.989061,47.8110955 C195.661637,48.389279 195.217277,48.9826779 194.655979,49.5912921 L194.655979,49.5912921 L189.814787,54.8497191 L189.814787,55.8904494 L198.5149,55.8904494 Z M204.554697,55.9634831 C206.180121,55.9634831 207.4255,55.4035581 208.290834,54.2837079 C209.156168,53.1638577 209.588834,51.5692884 209.588834,49.5 C209.588834,47.4307116 209.156168,45.8391854 208.290834,44.7254213 C207.4255,43.6116573 206.180121,43.0547753 204.554697,43.0547753 C202.940966,43.0547753 201.69851,43.6116573 200.82733,44.7254213 C199.956149,45.8391854 199.520559,47.4307116 199.520559,49.5 C199.520559,51.5692884 199.956149,53.1638577 200.82733,54.2837079 C201.69851,55.4035581 202.940966,55.9634831 204.554697,55.9634831 Z M204.554697,54.9410112 C203.315164,54.9410112 202.373821,54.4815075 201.730668,53.5625 C201.087514,52.6434925 200.765938,51.2893258 200.765938,49.5 C200.765938,47.7106742 201.087514,46.3565075 201.730668,45.4375 C202.373821,44.5184925 203.315164,44.0589888 204.554697,44.0589888 C205.794229,44.0589888 206.738495,44.5184925 207.387495,45.4375 C208.036496,46.3565075 208.360996,47.7106742 208.360996,49.5 C208.360996,51.2893258 208.036496,52.6434925 207.387495,53.5625 C206.738495,54.4815075 205.794229,54.9410112 204.554697,54.9410112 Z M216.014523,55.9634831 C217.639947,55.9634831 218.885326,55.4035581 219.75066,54.2837079 C220.615994,53.1638577 221.048661,51.5692884 221.048661,49.5 C221.048661,47.4307116 220.615994,45.8391854 219.75066,44.7254213 C218.885326,43.6116573 217.639947,43.0547753 216.014523,43.0547753 C214.400792,43.0547753 213.158337,43.6116573 212.287156,44.7254213 C211.415975,45.8391854 210.980385,47.4307116 210.980385,49.5 C210.980385,51.5692884 211.415975,53.1638577 212.287156,54.2837079 C213.158337,55.4035581 214.400792,55.9634831 216.014523,55.9634831 Z M216.014523,54.9410112 C214.774991,54.9410112 213.833648,54.4815075 213.190494,53.5625 C212.547341,52.6434925 212.225764,51.2893258 212.225764,49.5 C212.225764,47.7106742 212.547341,46.3565075 213.190494,45.4375 C213.833648,44.5184925 214.774991,44.0589888 216.014523,44.0589888 C217.254055,44.0589888 218.198321,44.5184925 218.847322,45.4375 C219.496322,46.3565075 219.820822,47.7106742 219.820822,49.5 C219.820822,51.2893258 219.496322,52.6434925 218.847322,53.5625 C218.198321,54.4815075 217.254055,54.9410112 216.014523,54.9410112 Z M226.492079,55.9634831 C227.392494,55.9634831 228.184742,55.7900281 228.868823,55.443118 C229.552905,55.0962079 230.079121,54.6032303 230.447473,53.9641854 C230.815824,53.3251404 231,52.5856742 231,51.7457865 C231,51.0276217 230.818748,50.3855337 230.456243,49.8195225 C230.093738,49.2535112 229.579215,48.8122659 228.912675,48.4957865 C228.246134,48.1793071 227.468503,48.0210674 226.579781,48.0210674 C226.240664,48.0210674 225.848925,48.0423689 225.404564,48.0849719 C224.960204,48.1275749 224.562618,48.1793071 224.211807,48.2401685 L224.211807,48.2401685 L224.211807,44.241573 L230.508865,44.241573 L230.508865,43.1095506 L223.071671,43.1095506 L223.071671,49.5730337 C223.527726,49.4513109 224.080253,49.3508895 224.729253,49.2717697 C225.378254,49.1926498 225.91324,49.1530899 226.334214,49.1530899 C227.39834,49.1530899 228.228593,49.3934925 228.824972,49.8742978 C229.42135,50.355103 229.71954,51.0093633 229.71954,51.8370787 C229.71954,52.75 229.418427,53.4803371 228.816201,54.0280899 C228.213976,54.5758427 227.404187,54.8497191 226.386835,54.8497191 C225.778763,54.8497191 225.147303,54.7401685 224.492456,54.5210674 C223.837609,54.3019663 223.235383,53.9976592 222.685779,53.6081461 L222.685779,53.6081461 L222.177103,54.5941011 C222.796869,55.0079588 223.495568,55.3396536 224.273199,55.5891854 C225.05083,55.8387172 225.790457,55.9634831 226.492079,55.9634831 Z" id="SINCE2005" fill="#323232"></path>
            </g>
        </g>
    </g>
</svg>